<?xml version="1.0" encoding="UTF-8" standalone="no" ?>
<!DOCTYPE svg PUBLIC "-//W3C//DTD SVG 1.1//EN" "http://www.w3.org/Graphics/SVG/1.1/DTD/svg11.dtd">
<svg xmlns="http://www.w3.org/2000/svg" xmlns:xlink="http://www.w3.org/1999/xlink" version="1.1" width="1080" height="1080" viewBox="0 0 1080 1080" xml:space="preserve">
<defs>
</defs>
<g transform="matrix(1 0 0 1 540 540)" id="4d9b74e6-0532-4438-8d30-4bedc4b6a2ed"  >
<rect style="stroke: none; stroke-width: 1; stroke-dasharray: none; stroke-linecap: butt; stroke-dashoffset: 0; stroke-linejoin: miter; stroke-miterlimit: 4; fill: rgb(255,255,255); fill-rule: nonzero; opacity: 1; visibility: hidden;" vector-effect="non-scaling-stroke"  x="-540" y="-540" rx="0" ry="0" width="1080" height="1080" />
</g>
<g transform="matrix(1 0 0 1 540 540)" id="b34fb80e-f240-4794-88fb-84b36d4c794b"  >
</g>
<g transform="matrix(1 0 0 1 540 540)"  >
<g style="" vector-effect="non-scaling-stroke"   >
		<g transform="matrix(0.1 0 0 -0.1 0 0)"  >
<path style="stroke: none; stroke-width: 1; stroke-dasharray: none; stroke-linecap: butt; stroke-dashoffset: 0; stroke-linejoin: miter; stroke-miterlimit: 4; fill: rgb(255,255,255); fill-rule: nonzero; opacity: 1;" vector-effect="non-scaling-stroke"  transform=" translate(-4999.97, -120.02)" d="M 3180.5 5009.8 C 3017.6 4937 2998.5 4737.7 3146 4659.1 C 3174.7 4643.8 3351 4630.400000000001 3630.8 4620.8 C 4058.1000000000004 4607.400000000001 4332.1 4574.8 4569.7 4515.400000000001 C 4776.599999999999 4461.8 5039.2 4371.700000000001 5039.2 4354.400000000001 C 5039.2 4344.8 4983.599999999999 4273.900000000001 4916.599999999999 4197.3 C 4015.9999999999995 3174.1000000000004 3460.2999999999993 2093.4 3132.6999999999994 723.3000000000002 C 3071.399999999999 472.3000000000002 2958.2999999999993 -110.19999999999982 2946.7999999999993 -232.89999999999986 C 2941.0999999999995 -286.59999999999985 2937.1999999999994 -288.4999999999999 2653.5999999999995 -361.29999999999984 C 1787.4999999999995 -579.6999999999998 1093.7999999999995 -918.8999999999999 635.8999999999994 -1346.1999999999998 C 101.2 -1844.3 -40.6 -2447.9 243 -3013.1 C 394.4 -3312 714.4 -3632 1112.9 -3879.2 C 2143.8 -4523 3893.3 -4867.9 5600.6 -4766.4 C 7317.5 -4662.9 8746.900000000001 -4166.599999999999 9448.2 -3432.7999999999997 C 9664.7 -3202.8999999999996 9764.400000000001 -3045.7 9852.5 -2781.2999999999997 C 9938.7 -2522.6 9902.3 -2129.7999999999997 9768.2 -1863.3999999999996 C 9381.2 -1102.7 8227.7 -483.8 6715.8 -225.1 C 6579.8 -202.1 6455.2 -179.1 6441.8 -175.3 C 6416.900000000001 -167.60000000000002 6415 -182.9 6468.6 330.59999999999997 C 6614.200000000001 1765.8 6984 3143.5 7432.400000000001 3921.5 C 7608.700000000001 4228.1 7645.1 4266.4 7844.400000000001 4341.1 C 8359.800000000001 4538.5 8676 4599.8 9302.6 4620.900000000001 C 9546 4630.500000000001 9768.2 4647.700000000001 9797 4659.200000000001 C 9862.2 4684.1 9913.9 4795.200000000001 9896.6 4871.900000000001 C 9890.800000000001 4900.6 9864 4944.700000000001 9837.2 4969.6 C 9789.300000000001 5015.6 9783.5 5015.6 9411.800000000001 5013.700000000001 C 8691.300000000001 5008.000000000001 8287.000000000002 4935.1 7679.600000000001 4697.500000000001 C 7405.600000000001 4588.300000000001 7380.700000000002 4569.100000000001 7179.500000000001 4258.700000000001 C 6602.700000000001 3367.7000000000007 6179.300000000001 1737.000000000001 6024.1 -192.4999999999991 C 5993.400000000001 -592.9999999999991 5964.700000000001 -2099.099999999999 5985.8 -2242.7999999999993 C 6006.900000000001 -2374.999999999999 6068.2 -2438.2999999999993 6177.400000000001 -2438.2999999999993 C 6246.400000000001 -2438.2999999999993 6275.1 -2426.7999999999993 6317.3 -2384.5999999999995 L 6370.900000000001 -2330.8999999999996 L 6370.900000000001 -2016.5999999999997 C 6370.900000000001 -1842.1999999999996 6376.700000000001 -1700.3999999999996 6384.3 -1700.3999999999996 C 6428.400000000001 -1700.3999999999996 6876.8 -1861.3999999999996 6999.400000000001 -1920.7999999999997 C 7248.500000000001 -2041.4999999999998 7382.6 -2190.9999999999995 7340.500000000001 -2298.2999999999997 C 7298.400000000001 -2413.2999999999997 7047.300000000001 -2578.1 6746.500000000001 -2691.1 C 6495.500000000001 -2785 5978.100000000001 -2907.6 5625.500000000001 -2955.5 C 5573.800000000001 -2963.2 5393.700000000001 -2978.5 5225.000000000001 -2991.9 L 4918.400000000001 -3016.8 L 4860.900000000001 -3080 C 4813.000000000001 -3133.6 4805.3 -3152.8 4814.900000000001 -3221.8 C 4822.6 -3273.5 4843.6 -3315.7000000000003 4876.200000000001 -3342.5 C 4922.200000000001 -3382.7 4945.200000000001 -3386.6 5133.000000000001 -3386.6 C 5357.200000000001 -3386.6 5799.800000000001 -3332.9 6106.400000000001 -3271.6 C 6976.3 -3091.5 7512.900000000001 -2827 7687.200000000001 -2486 C 7721.700000000001 -2417 7731.300000000001 -2369.1 7731.300000000001 -2246.5 C 7731.300000000001 -2112.4 7723.600000000001 -2079.8 7673.800000000001 -1991.7 C 7520.500000000001 -1711.9 7097.000000000001 -1478.2 6462.800000000001 -1317.2 L 6380.4000000000015 -1296.1000000000001 L 6380.4000000000015 -1144.7 C 6380.4000000000015 -1060.4 6386.200000000002 -991.4000000000001 6395.700000000002 -991.4000000000001 C 6403.4000000000015 -991.4000000000001 6526.000000000002 -1020.2 6667.800000000002 -1056.6000000000001 C 7311.600000000002 -1221.4 7784.9000000000015 -1453.2000000000003 8078.100000000002 -1746.4 C 8262.100000000002 -1932.2 8325.300000000003 -2062.6 8323.400000000001 -2256.1 C 8323.400000000001 -2374.9 8313.800000000001 -2419 8265.900000000001 -2514.7999999999997 C 8198.800000000001 -2652.7999999999997 7993.800000000001 -2867.3999999999996 7817.500000000002 -2982.3999999999996 C 7325.000000000002 -3304.2999999999997 6522.200000000002 -3539.9999999999995 5652.200000000002 -3618.4999999999995 C 5343.700000000002 -3645.2999999999997 4657.700000000002 -3645.2999999999997 4349.200000000002 -3618.4999999999995 C 3479.3000000000015 -3539.8999999999996 2676.4000000000015 -3304.2999999999997 2183.9000000000015 -2982.3999999999996 C 2007.6000000000015 -2867.3999999999996 1802.6000000000015 -2652.7999999999997 1735.5000000000014 -2514.7999999999997 C 1655.0000000000014 -2351.8999999999996 1653.1000000000013 -2160.2999999999997 1729.7000000000014 -2003.1999999999998 C 1844.7000000000014 -1769.3999999999999 2109.1000000000013 -1547.1999999999998 2496.2000000000016 -1357.4999999999998 C 2624.6000000000017 -1294.2999999999997 2754.9000000000015 -1236.7999999999997 2785.500000000002 -1229.0999999999997 C 2841.1000000000017 -1215.6999999999996 2841.1000000000017 -1215.6999999999996 2829.6000000000017 -1290.3999999999996 C 2821.900000000002 -1330.6999999999996 2816.2000000000016 -1391.9999999999995 2816.2000000000016 -1426.4999999999995 C 2816.2000000000016 -1482.0999999999995 2804.7000000000016 -1493.5999999999995 2668.7000000000016 -1568.2999999999995 C 2274.000000000002 -1784.7999999999995 2101.500000000002 -1991.7999999999995 2099.6000000000017 -2256.1999999999994 C 2095.8000000000015 -2645.1999999999994 2515.400000000002 -2974.7999999999993 3065.300000000002 -3016.8999999999996 C 3281.800000000002 -3032.2 3371.900000000002 -2976.5999999999995 3371.900000000002 -2823.3999999999996 C 3371.900000000002 -2712.2999999999997 3310.6000000000017 -2660.4999999999995 3151.500000000002 -2637.5999999999995 C 2821.900000000002 -2587.7999999999993 2620.7000000000016 -2503.4999999999995 2534.500000000002 -2373.1999999999994 C 2463.6000000000017 -2267.7999999999993 2475.1000000000017 -2206.4999999999995 2584.300000000002 -2101.0999999999995 C 2636.000000000002 -2051.2999999999993 2705.000000000002 -1995.6999999999994 2737.600000000002 -1980.3999999999994 L 2795.100000000002 -1949.7999999999995 L 2793.200000000002 -2043.6999999999996 C 2793.200000000002 -2204.5999999999995 2894.800000000002 -2292.7999999999997 3036.600000000002 -2254.4999999999995 C 3151.600000000002 -2221.8999999999996 3174.600000000002 -2160.5999999999995 3188.0000000000023 -1848.2999999999995 C 3264.600000000002 -215.6999999999996 3534.8000000000025 1060.4000000000003 4033.0000000000023 2152.6000000000004 C 4312.800000000002 2767.7000000000003 4740.100000000002 3409.6000000000004 5270.800000000002 4009.4000000000005 C 5569.700000000002 4346.6 5575.500000000002 4354.3 5575.500000000002 4434.8 C 5575.500000000002 4551.7 5508.4000000000015 4603.400000000001 5217.200000000002 4716.5 C 4925.9000000000015 4827.6 4609.800000000002 4915.8 4349.200000000002 4956 C 4002.5 5011.7 3259.1 5044.3 3180.5 5009.8 z M 6700.5 -617.9 C 8013.1 -861.2 9022.9 -1370.9 9373.5 -1970.6999999999998 C 9478.9 -2148.8999999999996 9509.5 -2269.6 9500 -2480.3999999999996 C 9494.3 -2639.3999999999996 9484.7 -2670.0999999999995 9411.9 -2817.5999999999995 C 9090 -3467.1999999999994 8026.5 -4013.2999999999993 6610.5 -4256.599999999999 C 6005 -4361.999999999999 5317.1 -4404.099999999999 4621.5 -4379.2 C 2670.8 -4312.099999999999 1011.4000000000001 -3668.2999999999997 588 -2815.6 L 507.5 -2651 L 507.5 -2430.6 L 507.5 -2208.2999999999997 L 593.7 -2035.7999999999997 C 664.6 -1892.0999999999997 710.6 -1832.6999999999998 862 -1681.2999999999997 C 961.6 -1579.6999999999998 1109.2 -1453.2999999999997 1189.7 -1399.5999999999997 C 1559.5 -1146.6999999999996 2142 -895.6999999999997 2667.1000000000004 -761.4999999999997 C 2747.6000000000004 -740.3999999999996 2828.1000000000004 -717.3999999999996 2845.3 -711.6999999999997 C 2870.2000000000003 -702.0999999999997 2876 -707.8999999999997 2870.2000000000003 -742.2999999999997 C 2866.4 -776.7999999999997 2831.9 -795.9999999999998 2686.3 -847.6999999999997 C 1985.0000000000002 -1098.6999999999998 1456.1000000000001 -1531.7999999999997 1320.1000000000001 -1966.6999999999998 C 1180 -2421 1390.8 -2894.3 1889 -3250.8 C 3358.7 -4297 6643 -4297 8112.7 -3250.8 C 8936.6 -2662.5 8925.1 -1832.8000000000002 8082 -1235.0000000000002 C 7735.2 -989.7000000000003 7143.1 -752.1000000000003 6591.2 -637.2000000000003 C 6501.099999999999 -618.0000000000002 6420.7 -595.0000000000002 6411.099999999999 -587.4000000000003 C 6382.4 -562.4 6407.3 -564.3 6700.5 -617.9 z" stroke-linecap="round" />
</g>
		<g transform="matrix(0.1 0 0 -0.1 92.06 -88.36)"  >
<path style="stroke: none; stroke-width: 1; stroke-dasharray: none; stroke-linecap: butt; stroke-dashoffset: 0; stroke-linejoin: miter; stroke-miterlimit: 4; fill: rgb(255,255,255); fill-rule: nonzero; opacity: 1;" vector-effect="non-scaling-stroke"  transform=" translate(-5920.6, -1003.6)" d="M 6666 4578.7 C 6612.3 4532.7 6484 4358.3 6332.6 4124.599999999999 C 5424.3 2718.0999999999995 5029.6 1135.3999999999996 4885.900000000001 -1681.4000000000005 C 4876.3 -1886.4000000000005 4866.700000000001 -2154.7000000000007 4866.700000000001 -2277.3000000000006 C 4866.700000000001 -2472.7000000000007 4872.400000000001 -2505.3000000000006 4905.000000000001 -2549.4000000000005 C 4991.200000000001 -2658.6000000000004 5188.600000000001 -2626.0000000000005 5228.800000000001 -2497.7000000000007 C 5240.300000000001 -2465.100000000001 5257.500000000001 -2217.9000000000005 5269.100000000001 -1949.7000000000007 C 5395.600000000001 1072.0999999999995 5819.000000000001 2735.2999999999993 6830.800000000001 4158.999999999999 C 6955.4000000000015 4333.399999999999 6974.500000000001 4371.699999999999 6974.500000000001 4442.599999999999 C 6974.500000000001 4509.7 6964.900000000001 4532.7 6915.100000000001 4572.9 C 6840.4 4636.2 6735 4640 6666 4578.7 z" stroke-linecap="round" />
</g>
		<g transform="matrix(0.1 0 0 -0.1 2.61 -94.11)"  >
<path style="stroke: none; stroke-width: 1; stroke-dasharray: none; stroke-linecap: butt; stroke-dashoffset: 0; stroke-linejoin: miter; stroke-miterlimit: 4; fill: rgb(255,255,255); fill-rule: nonzero; opacity: 1;" vector-effect="non-scaling-stroke"  transform=" translate(-5026.1, -1061.14)" d="M 5958.9 4534.6 C 5932.099999999999 4517.400000000001 5853.5 4433 5782.599999999999 4346.8 C 4933.8 3308.3 4381.9 2053.2 4073.4 455.1 C 3935.4 -263.5 3816.6 -1365.1999999999998 3807.1 -2039.7000000000003 C 3803.2999999999997 -2321.4 3805.2 -2331.0000000000005 3849.2999999999997 -2378.9 C 3916.3999999999996 -2449.8 4006.3999999999996 -2461.3 4086.8999999999996 -2411.5 C 4180.799999999999 -2354 4175 -2380.8 4215.299999999999 -1662.3 C 4291.9 -305.70000000000005 4525.699999999999 960.8999999999999 4876.4 1932.3999999999999 C 5165.7 2725.7 5564.299999999999 3453.8 6016.5 4009.5 C 6231.1 4272 6246.4 4296.9 6246.4 4377.4 C 6246.4 4526.9 6085.4 4613.2 5958.9 4534.6 z" stroke-linecap="round" />
</g>
</g>
</g>
</svg>