<?xml version="1.0" standalone="no"?>
<!DOCTYPE svg PUBLIC "-//W3C//DTD SVG 20010904//EN"
 "http://www.w3.org/TR/2001/REC-SVG-20010904/DTD/svg10.dtd">
<svg version="1.0" xmlns="http://www.w3.org/2000/svg"
 width="338.000000pt" height="338.000000pt" viewBox="0 0 338.000000 338.000000"
 preserveAspectRatio="xMidYMid meet">
<metadata>
Created by potrace 1.11, written by Peter Selinger 2001-2013
</metadata>
<g transform="translate(0.000000,338.000000) scale(0.100000,-0.100000)"
fill="#000000" stroke="none">
<path d="M1505 3370 c-15 -25 -5 -90 24 -155 39 -85 55 -82 59 11 4 92 -14
148 -50 152 -14 2 -29 -2 -33 -8z"/>
<path d="M2212 3233 c-74 -72 -115 -243 -46 -195 25 17 114 135 120 159 15 57
-30 79 -74 36z"/>
<path d="M1257 3124 c-15 -15 -7 -52 12 -57 27 -7 43 7 39 34 -3 24 -36 38
-51 23z"/>
<path d="M1676 3071 c-23 -26 -22 -102 4 -196 13 -49 24 -123 27 -190 4 -99 2
-121 -26 -229 -17 -65 -38 -127 -47 -137 -17 -19 -18 -19 -42 3 -23 22 -24 27
-17 98 13 129 9 170 -18 170 -17 0 -37 -41 -38 -78 l0 -27 -10 25 c-6 14 -12
55 -15 93 -7 110 -46 177 -103 177 -33 0 -40 -7 -47 -46 -3 -17 8 -49 36 -98
22 -41 40 -84 40 -97 0 -25 -31 -60 -62 -72 -26 -9 -71 64 -84 138 -12 70 -36
134 -65 175 -41 57 -64 75 -117 96 -40 16 -46 16 -77 1 -39 -18 -53 -54 -39
-96 7 -19 30 -36 84 -63 109 -53 181 -145 208 -266 13 -55 4 -67 -44 -56 -57
12 -66 12 -96 -3 -55 -27 -37 -57 88 -152 88 -66 134 -122 127 -151 -7 -26
-45 -39 -163 -55 -111 -16 -160 -83 -125 -172 19 -47 60 -73 82 -51 7 8 21 38
30 68 32 98 98 100 163 4 l32 -45 -37 -36 c-47 -46 -56 -71 -59 -168 -3 -91
-17 -126 -76 -185 -44 -44 -93 -72 -195 -110 l-69 -25 -1 -464 c0 -254 2 -466
5 -471 3 -4 39 -23 80 -43 211 -97 526 -244 610 -284 143 -67 117 -70 350 40
98 46 206 96 361 167 69 32 153 72 187 89 l62 31 0 468 -1 467 -98 64 c-108
69 -193 147 -221 201 -9 19 -20 64 -24 99 -6 68 -41 129 -77 138 -14 4 -16 10
-8 30 20 53 74 116 140 164 76 56 109 95 109 131 0 49 -45 76 -88 54 -38 -19
-80 -64 -102 -106 -21 -42 -48 -67 -75 -72 -17 -3 -20 2 -19 38 1 42 11 71 64
174 27 55 33 111 12 132 -29 29 -97 -85 -127 -216 -18 -80 -49 -156 -64 -156
-19 0 -24 53 -12 115 15 75 83 214 131 270 82 95 103 166 52 173 -18 3 -39
-12 -84 -58 -33 -33 -63 -59 -65 -56 -7 6 24 63 77 142 51 74 69 122 64 164
-13 98 -29 115 -73 82 -22 -16 -110 -173 -111 -196 0 -5 -12 -29 -26 -54 -31
-53 -40 -45 -46 38 -6 65 1 88 53 195 56 114 65 196 21 207 -46 12 -90 -33
-99 -99 -6 -47 -38 -123 -52 -123 -19 0 -24 25 -23 117 3 126 -17 163 -91 177
-16 3 -31 -2 -41 -13z m161 -590 c-7 -15 -22 -40 -35 -56 l-23 -30 6 55 c6 59
28 88 51 69 10 -8 10 -16 1 -38z m-418 -185 c35 -31 105 -126 125 -169 10 -22
16 -54 14 -80 l-3 -42 -24 62 c-18 48 -41 79 -102 143 -80 82 -100 123 -56
113 12 -3 33 -15 46 -27z m493 2 c10 -30 -65 -234 -82 -223 -13 8 -12 87 1
145 15 64 69 116 81 78z"/>
<path d="M1482 2948 c-18 -18 -14 -46 12 -81 13 -18 43 -68 66 -112 42 -81 60
-107 60 -90 0 6 3 40 6 76 11 122 -35 219 -105 219 -15 0 -32 -5 -39 -12z"/>
<path d="M2413 2540 c-70 -16 -124 -70 -147 -149 -22 -75 -26 -105 -16 -121
13 -21 27 -9 82 69 29 41 60 79 69 84 16 10 22 9 69 -18 31 -18 59 -2 73 39
18 55 -58 111 -130 96z"/>
<path d="M889 2267 c-62 -23 -100 -139 -61 -187 20 -24 21 -24 40 -7 11 10 23
29 26 42 3 13 22 33 42 46 31 19 45 21 103 16 37 -3 91 -15 121 -26 95 -36 92
-21 -11 45 -105 68 -199 94 -260 71z"/>
</g>
</svg>
